<!-- icon666.com - MILLIONS vector ICONS FREE --><svg version="1.1" id="Capa_1" xmlns="http:/www.w3.org/2000/svg" xmlns:xlink="http:/www.w3.org/1999/xlink" x="0px" y="0px" viewBox="0 0 512 512" style="enable-background:new 0 0 512 512;" xml:space="preserve"><linearGradient id="SVGID_1_" gradientUnits="userSpaceOnUse" x1="74.9807" y1="439.0193" x2="437.0193" y2="76.9807" gradientTransform="matrix(1 0 0 -1 0 514)"><stop offset="0" style="stop-color:#FF0014"></stop><stop offset="1" style="stop-color:#B80002"></stop></linearGradient><circle style="fill:url(#SVGID_1_);" cx="256" cy="256" r="256"></circle><rect x="200.91" y="357.17" style="fill:#9CD649;" width="109.84" height="57.833"></rect><linearGradient id="SVGID_2_" gradientUnits="userSpaceOnUse" x1="175.84" y1="86.2885" x2="335.83" y2="86.2885" gradientTransform="matrix(1 0 0 -1 0 514)"><stop offset="0" style="stop-color:#CBED96"></stop><stop offset="1" style="stop-color:#7DD636"></stop></linearGradient><rect x="175.84" y="412.92" style="fill:url(#SVGID_2_);" width="159.99" height="29.583"></rect><linearGradient id="SVGID_3_" gradientUnits="userSpaceOnUse" x1="83.326" y1="276.181" x2="428.341" y2="276.181" gradientTransform="matrix(1 0 0 -1 0 514)"><stop offset="0" style="stop-color:#CBED96"></stop><stop offset="1" style="stop-color:#7DD636"></stop></linearGradient><path style="fill:url(#SVGID_3_);" d="M412.46,362.088H99.207c-8.735,0-15.881-7.147-15.881-15.881V129.431 c0-8.735,7.147-15.881,15.881-15.881H412.46c8.735,0,15.881,7.146,15.881,15.881v216.776 C428.341,354.942,421.194,362.088,412.46,362.088z"></path><linearGradient id="SVGID_4_" gradientUnits="userSpaceOnUse" x1="102.17" y1="276.51" x2="409.5" y2="276.51" gradientTransform="matrix(1 0 0 -1 0 514)"><stop offset="0" style="stop-color:#AD1E9E"></stop><stop offset="1" style="stop-color:#5C0254"></stop></linearGradient><rect x="102.17" y="133.49" style="fill:url(#SVGID_4_);" width="307.33" height="208"></rect><linearGradient id="SVGID_5_" gradientUnits="userSpaceOnUse" x1="136.94" y1="305.67" x2="374.73" y2="305.67" gradientTransform="matrix(1 0 0 -1 0 514)"><stop offset="0.001" style="stop-color:#FFFFFF"></stop><stop offset="1" style="stop-color:#FFF4C8"></stop></linearGradient><rect x="136.94" y="75.17" style="fill:url(#SVGID_5_);" width="237.79" height="266.32"></rect><g><linearGradient id="SVGID_6_" gradientUnits="userSpaceOnUse" x1="185.67" y1="380.71" x2="325.5" y2="380.71" gradientTransform="matrix(1 0 0 -1 0 514)"><stop offset="0" style="stop-color:#FFB835"></stop><stop offset="0.901" style="stop-color:#FF7700"></stop></linearGradient><rect x="169.64" y="124.75" style="fill:url(#SVGID_6_);" width="35.59" height="17.08"></rect><linearGradient id="SVGID_7_" gradientUnits="userSpaceOnUse" x1="185.67" y1="380.71" x2="325.5" y2="380.71" gradientTransform="matrix(1 0 0 -1 0 514)"><stop offset="0" style="stop-color:#FFB835"></stop><stop offset="0.901" style="stop-color:#FF7700"></stop></linearGradient><rect x="320.69" y="124.75" style="fill:url(#SVGID_7_);" width="21.333" height="17.08"></rect><linearGradient id="SVGID_8_" gradientUnits="userSpaceOnUse" x1="185.67" y1="380.7085" x2="325.5" y2="380.7085" gradientTransform="matrix(1 0 0 -1 0 514)"><stop offset="0" style="stop-color:#FFB835"></stop><stop offset="0.901" style="stop-color:#FF7700"></stop></linearGradient><polygon style="fill:url(#SVGID_8_);" points="304.986,141.83 304.99,141.83 304.99,124.75 304.986,124.75 256,124.75 219.071,124.75 219.071,141.833 304.986,141.833 "></polygon><linearGradient id="SVGID_9_" gradientUnits="userSpaceOnUse" x1="185.67" y1="342.29" x2="325.5" y2="342.29" gradientTransform="matrix(1 0 0 -1 0 514)"><stop offset="0" style="stop-color:#FFB835"></stop><stop offset="0.901" style="stop-color:#FF7700"></stop></linearGradient><rect x="269.4" y="163.17" style="fill:url(#SVGID_9_);" width="72.63" height="17.08"></rect><linearGradient id="SVGID_10_" gradientUnits="userSpaceOnUse" x1="185.67" y1="342.29" x2="325.5" y2="342.29" gradientTransform="matrix(1 0 0 -1 0 514)"><stop offset="0" style="stop-color:#FFB835"></stop><stop offset="0.901" style="stop-color:#FF7700"></stop></linearGradient><rect x="169.64" y="163.17" style="fill:url(#SVGID_10_);" width="85.92" height="17.08"></rect><linearGradient id="SVGID_11_" gradientUnits="userSpaceOnUse" x1="185.67" y1="303.88" x2="325.5" y2="303.88" gradientTransform="matrix(1 0 0 -1 0 514)"><stop offset="0" style="stop-color:#FFB835"></stop><stop offset="0.901" style="stop-color:#FF7700"></stop></linearGradient><rect x="169.64" y="201.58" style="fill:url(#SVGID_11_);" width="35.59" height="17.08"></rect><linearGradient id="SVGID_12_" gradientUnits="userSpaceOnUse" x1="185.67" y1="303.88" x2="325.5" y2="303.88" gradientTransform="matrix(1 0 0 -1 0 514)"><stop offset="0" style="stop-color:#FFB835"></stop><stop offset="0.901" style="stop-color:#FF7700"></stop></linearGradient><rect x="320.69" y="201.58" style="fill:url(#SVGID_12_);" width="21.333" height="17.08"></rect><linearGradient id="SVGID_13_" gradientUnits="userSpaceOnUse" x1="185.67" y1="303.875" x2="325.5" y2="303.875" gradientTransform="matrix(1 0 0 -1 0 514)"><stop offset="0" style="stop-color:#FFB835"></stop><stop offset="0.901" style="stop-color:#FF7700"></stop></linearGradient><polygon style="fill:url(#SVGID_13_);" points="304.99,218.67 304.99,201.58 256,201.58 256,201.583 219.071,201.583 219.071,218.667 256,218.667 256,218.67 "></polygon><linearGradient id="SVGID_14_" gradientUnits="userSpaceOnUse" x1="185.67" y1="227.04" x2="325.5" y2="227.04" gradientTransform="matrix(1 0 0 -1 0 514)"><stop offset="0" style="stop-color:#FFB835"></stop><stop offset="0.901" style="stop-color:#FF7700"></stop></linearGradient><rect x="169.64" y="278.42" style="fill:url(#SVGID_14_);" width="35.59" height="17.08"></rect><linearGradient id="SVGID_15_" gradientUnits="userSpaceOnUse" x1="185.67" y1="227.04" x2="325.5" y2="227.04" gradientTransform="matrix(1 0 0 -1 0 514)"><stop offset="0" style="stop-color:#FFB835"></stop><stop offset="0.901" style="stop-color:#FF7700"></stop></linearGradient><rect x="320.69" y="278.42" style="fill:url(#SVGID_15_);" width="21.333" height="17.08"></rect><linearGradient id="SVGID_16_" gradientUnits="userSpaceOnUse" x1="185.67" y1="227.0415" x2="325.5" y2="227.0415" gradientTransform="matrix(1 0 0 -1 0 514)"><stop offset="0" style="stop-color:#FFB835"></stop><stop offset="0.901" style="stop-color:#FF7700"></stop></linearGradient><polygon style="fill:url(#SVGID_16_);" points="304.986,278.417 219.071,278.417 219.071,295.5 256,295.5 304.986,295.5 304.99,295.5 304.99,278.42 304.986,278.42 "></polygon><linearGradient id="SVGID_17_" gradientUnits="userSpaceOnUse" x1="185.67" y1="265.46" x2="325.5" y2="265.46" gradientTransform="matrix(1 0 0 -1 0 514)"><stop offset="0" style="stop-color:#FFB835"></stop><stop offset="0.901" style="stop-color:#FF7700"></stop></linearGradient><rect x="269.4" y="240" style="fill:url(#SVGID_17_);" width="72.63" height="17.08"></rect><linearGradient id="SVGID_18_" gradientUnits="userSpaceOnUse" x1="185.67" y1="265.46" x2="325.5" y2="265.46" gradientTransform="matrix(1 0 0 -1 0 514)"><stop offset="0" style="stop-color:#FFB835"></stop><stop offset="0.901" style="stop-color:#FF7700"></stop></linearGradient><rect x="169.64" y="240" style="fill:url(#SVGID_18_);" width="85.92" height="17.08"></rect></g></svg>